<?xml version="1.0" encoding="UTF-8" standalone="no"?>
<svg
   xmlns:dc="http://purl.org/dc/elements/1.1/"
   xmlns:cc="http://creativecommons.org/ns#"
   xmlns:rdf="http://www.w3.org/1999/02/22-rdf-syntax-ns#"
   xmlns:svg="http://www.w3.org/2000/svg"
   xmlns="http://www.w3.org/2000/svg"
   xmlns:sodipodi="http://sodipodi.sourceforge.net/DTD/sodipodi-0.dtd"
   xmlns:inkscape="http://www.inkscape.org/namespaces/inkscape"
   id="svg3004"
   version="1.1"
   inkscape:version="0.48.5 r10040"
   width="350"
   height="350"
   xml:space="preserve"
   sodipodi:docname="MAGIC Logo_col.svg"><metadata
     id="metadata3010"><rdf:RDF><cc:Work
         rdf:about=""><dc:format>image/svg+xml</dc:format><dc:type
           rdf:resource="http://purl.org/dc/dcmitype/StillImage" /><dc:title></dc:title></cc:Work></rdf:RDF></metadata><defs
     id="defs3008" /><sodipodi:namedview
     pagecolor="#ffffff"
     bordercolor="#666666"
     borderopacity="1"
     objecttolerance="10"
     gridtolerance="10"
     guidetolerance="10"
     inkscape:pageopacity="0"
     inkscape:pageshadow="2"
     inkscape:window-width="1856"
     inkscape:window-height="1042"
     id="namedview3006"
     showgrid="false"
     inkscape:zoom="1.8203198"
     inkscape:cx="113.68914"
     inkscape:cy="178.73063"
     inkscape:window-x="0"
     inkscape:window-y="27"
     inkscape:window-maximized="0"
     inkscape:current-layer="g3014" /><g
     id="g3012"
     inkscape:groupmode="layer"
     inkscape:label="ink_ext_XXXXXX"
     transform="matrix(1.25,0,0,-1.25,0,349.99867)"><g
       id="g3014"
       transform="scale(0.1,0.1)"><path
         d="m 1453.9072,1491.0277 c 151.69,0 274.66,122.97 274.66,274.67 0,151.69 -122.97,274.66 -274.66,274.66 -151.7,0 -274.67,-122.97 -274.67,-274.66 0,-151.7 122.97,-274.67 274.67,-274.67"
         style="fill:#00adef;fill-opacity:1;fill-rule:nonzero;stroke:none"
         id="path3016"
         inkscape:connector-curvature="0" /><path
         d="m 2106.1272,1132.9477 c 213.49,0 386.56,182.64 386.56,407.93 0,225.29 -173.07,407.93 -386.56,407.93 -213.5,0 -386.57,-182.64 -386.57,-407.93 0,-225.29 173.07,-407.93 386.57,-407.93"
         style="fill:#00adef;fill-opacity:1;fill-rule:nonzero;stroke:none"
         id="path3018"
         inkscape:connector-curvature="0" /><path
         d="m 645.16818,1094.2877 c 151.691,0 274.664,122.97 274.664,274.67 0,151.69 -122.973,274.66 -274.664,274.66 -151.696,0 -274.664,-122.97 -274.664,-274.66 0,-151.7 122.968,-274.67 274.664,-274.67"
         style="fill:#00adef;fill-opacity:1;fill-rule:nonzero;stroke:none"
         id="path3020"
         inkscape:connector-curvature="0" /><path
         d="m 990.02718,543.60766 c 182.03002,0 329.60002,147.56 329.60002,329.6 0,182.03004 -147.57,329.59004 -329.60002,329.59004 -182.035,0 -329.601,-147.56 -329.601,-329.59004 0,-182.04 147.566,-329.6 329.601,-329.6"
         style="fill:#00adef;fill-opacity:1;fill-rule:nonzero;stroke:none"
         id="path3022"
         inkscape:connector-curvature="0" /><path
         d="m 2193.2072,405.01766 c 182.03,0 329.6,147.56 329.6,329.6 0,182.03 -147.57,329.59004 -329.6,329.59004 -182.03,0 -329.6,-147.56004 -329.6,-329.59004 0,-182.04 147.57,-329.6 329.6,-329.6"
         style="fill:#00adef;fill-opacity:1;fill-rule:nonzero;stroke:none"
         id="path3024"
         inkscape:connector-curvature="0" /><path
         d="m 956.45718,1784.0077 c 89.33002,0 161.74002,72.42 161.74002,161.74 0,89.34 -72.41,161.75 -161.74002,161.75 -89.332,0 -161.75,-72.41 -161.75,-161.75 0,-89.32 72.418,-161.74 161.75,-161.74"
         style="fill:#3573c2;fill-opacity:1;fill-rule:nonzero;stroke:none"
         id="path3026"
         inkscape:connector-curvature="0" /><path
         d="m 1325.1972,2133.9477 c 89.33,0 161.74,72.42 161.74,161.75 0,89.33 -72.41,161.75 -161.74,161.75 -89.33,0 -161.75,-72.42 -161.75,-161.75 0,-89.33 72.42,-161.75 161.75,-161.75"
         style="fill:#3573c2;fill-opacity:1;fill-rule:nonzero;stroke:none"
         id="path3028"
         inkscape:connector-curvature="0" /><path
         d="m 1728.7172,361.84566 c 76.22,0 138.01,59.212 138.01,132.252 0,73.04 -61.79,132.25 -138.01,132.25 -76.22,0 -138.01,-59.21 -138.01,-132.25 0,-73.04 61.79,-132.252 138.01,-132.252"
         style="fill:#4dc6f4;fill-opacity:1;fill-rule:nonzero;stroke:none"
         id="path3030"
         inkscape:connector-curvature="0" /><path
         d="m 392.68718,1584.6177 c 76.223,0 138.012,61.79 138.012,138.01 0,76.23 -61.789,138.02 -138.012,138.02 -76.218,0 -138.007,-61.79 -138.007,-138.02 0,-76.22 61.789,-138.01 138.007,-138.01"
         style="fill:#00adef;fill-opacity:1;fill-rule:nonzero;stroke:none"
         id="path3032"
         inkscape:connector-curvature="0" /><path
         d="m 415.07018,2161.0777 c 76.219,0 138.008,61.79 138.008,138.01 0,76.22 -61.789,138.01 -138.008,138.01 -76.223,0 -138.012,-61.79 -138.012,-138.01 0,-76.22 61.789,-138.01 138.012,-138.01"
         style="fill:#00adef;fill-opacity:1;fill-rule:nonzero;stroke:none"
         id="path3034"
         inkscape:connector-curvature="0" /><path
         d="m 452.03118,723.32766 c 105.246,0 190.57,85.32 190.57,190.57 0,105.25004 -85.324,190.57004 -190.57,190.57004 -105.25,0 -190.57,-85.32 -190.57,-190.57004 0,-105.25 85.32,-190.57 190.57,-190.57"
         style="fill:#0f80cc;fill-opacity:1;fill-rule:nonzero;stroke:none"
         id="path3036"
         inkscape:connector-curvature="0" /><path
         d="m 653.98418,1772.4777 c 107.684,0 194.977,87.29 194.977,194.98 0,107.68 -87.293,194.98 -194.977,194.98 -107.683,0 -194.976,-87.3 -194.976,-194.98 0,-107.69 87.293,-194.98 194.976,-194.98"
         style="fill:#3573c2;fill-opacity:1;fill-rule:nonzero;stroke:none"
         id="path3038"
         inkscape:connector-curvature="0" /><path
         d="m 674.13718,2113.6077 c 89.328,0 161.746,72.41 161.746,161.75 0,89.32 -72.418,161.74 -161.746,161.74 -89.332,0 -161.75,-72.42 -161.75,-161.74 0,-89.34 72.418,-161.75 161.75,-161.75"
         style="fill:#3573c2;fill-opacity:1;fill-rule:nonzero;stroke:none"
         id="path3040"
         inkscape:connector-curvature="0" /><path
         d="m 1397.4172,375.41666 c 114.24,0 206.85,92.611 206.85,206.841 0,114.24 -92.61,206.85 -206.85,206.85 -114.23,0 -206.84,-92.61 -206.84,-206.85 0,-114.23 92.61,-206.841 206.84,-206.841"
         style="fill:#4dc6f4;fill-opacity:1;fill-rule:nonzero;stroke:none"
         id="path3042"
         inkscape:connector-curvature="0" /><path
         d="m 1794.1572,1894.5577 c 74.91,0 135.64,57.69 135.64,128.85 0,71.17 -60.73,128.85 -135.64,128.85 -74.91,0 -135.64,-57.68 -135.64,-128.85 0,-71.16 60.73,-128.85 135.64,-128.85"
         style="fill:#00adef;fill-opacity:1;fill-rule:nonzero;stroke:none"
         id="path3044"
         inkscape:connector-curvature="0" /><path
         d="m 1668.6972,2152.2577 c 84.27,0 152.59,68.32 152.59,152.6 0,84.27 -68.32,152.59 -152.59,152.59 -84.28,0 -152.59,-68.32 -152.59,-152.59 0,-84.28 68.31,-152.6 152.59,-152.6"
         style="fill:#00adef;fill-opacity:1;fill-rule:nonzero;stroke:none"
         id="path3046"
         inkscape:connector-curvature="0" /><path
         d="m 1519.4972,2050.5377 c 39.32,0 71.21,28.84 71.21,64.42 0,35.58 -31.89,64.43 -71.21,64.43 -39.33,0 -71.21,-28.85 -71.21,-64.43 0,-35.58 31.88,-64.42 71.21,-64.42"
         style="fill:#00adef;fill-opacity:1;fill-rule:nonzero;stroke:none"
         id="path3048"
         inkscape:connector-curvature="0" /><path
         d="m 1926.4072,2213.2977 c 39.33,0 71.21,28.85 71.21,64.43 0,35.58 -31.88,64.42 -71.21,64.42 -39.33,0 -71.21,-28.84 -71.21,-64.42 0,-35.58 31.88,-64.43 71.21,-64.43"
         style="fill:#3573c2;fill-opacity:1;fill-rule:nonzero;stroke:none"
         id="path3050"
         inkscape:connector-curvature="0" /><path
         d="m 2048.4772,2321.8077 c 28.09,0 50.87,21.25 50.87,47.47 0,26.22 -22.78,47.47 -50.87,47.47 -28.09,0 -50.86,-21.25 -50.86,-47.47 0,-26.22 22.77,-47.47 50.86,-47.47"
         style="fill:#00adef;fill-opacity:1;fill-rule:nonzero;stroke:none"
         id="path3052"
         inkscape:connector-curvature="0" /><path
         d="m 2404.5272,1887.7677 c 44.94,0 81.38,36.44 81.38,81.38 0,44.95 -36.44,81.39 -81.38,81.39 -44.95,0 -81.38,-36.44 -81.38,-81.39 0,-44.94 36.43,-81.38 81.38,-81.38"
         style="fill:#00adef;fill-opacity:1;fill-rule:nonzero;stroke:none"
         id="path3054"
         inkscape:connector-curvature="0" /><path
         d="m 376.75018,395.75666 c 44.945,0 81.383,36.441 81.383,81.381 0,44.95 -36.438,81.39 -81.383,81.39 -44.945,0 -81.379,-36.44 -81.379,-81.39 0,-44.94 36.434,-81.381 81.379,-81.381"
         style="fill:#3573c2;fill-opacity:1;fill-rule:nonzero;stroke:none"
         id="path3056"
         inkscape:connector-curvature="0" /><path
         d="m 336.05818,1955.5877 c 44.95,0 81.383,36.43 81.383,81.38 0,44.95 -36.433,81.38 -81.383,81.38 -44.945,0 -81.378,-36.43 -81.378,-81.38 0,-44.95 36.433,-81.38 81.378,-81.38"
         style="fill:#3573c2;fill-opacity:1;fill-rule:nonzero;stroke:none"
         id="path3058"
         inkscape:connector-curvature="0" /><path
         d="m 2397.7472,2267.5577 c 44.94,0 81.38,36.43 81.38,81.38 0,44.94 -36.44,81.38 -81.38,81.38 -44.95,0 -81.39,-36.44 -81.39,-81.38 0,-44.95 36.44,-81.38 81.39,-81.38"
         style="fill:#00adef;fill-opacity:1;fill-rule:nonzero;stroke:none"
         id="path3060"
         inkscape:connector-curvature="0" /><path
         d="m 2414.6972,1050.2077 c 54.31,0 98.34,46.31 98.34,103.43 0,57.12 -44.03,103.42 -98.34,103.42 -54.31,0 -98.34,-46.3 -98.34,-103.42 0,-57.12 44.03,-103.43 98.34,-103.43"
         style="fill:#3573c2;fill-opacity:1;fill-rule:nonzero;stroke:none"
         id="path3062"
         inkscape:connector-curvature="0" /><path
         d="m 2145.1172,1972.5377 c 92.7,0 167.85,75.15 167.85,167.86 0,92.69 -75.15,167.85 -167.85,167.85 -92.7,0 -167.85,-75.16 -167.85,-167.85 0,-92.71 75.15,-167.86 167.85,-167.86"
         style="fill:#3573c2;fill-opacity:1;fill-rule:nonzero;stroke:none"
         id="path3064"
         inkscape:connector-curvature="0" /><path
         d="m 898.95318,492.39766 c 0,75.85 -61.484,137.34 -137.332,137.34 -28.699,0 -55.305,-8.86 -77.34,-23.92 0.324,3.47 1.043,6.81 1.043,10.35 0,61.8 -50.098,111.9 -111.898,111.9 -61.801,0 -111.903,-50.1 -111.903,-111.9 0,-61.8 50.102,-111.9 111.903,-111.9 19.488,0 37.531,5.43 53.488,14.19 -1.625,-8.45 -2.625,-17.13 -2.625,-26.06 0,-75.84 61.484,-137.329 137.332,-137.329 75.848,0 137.332,61.489 137.332,137.329"
         style="fill:#3573c2;fill-opacity:1;fill-rule:nonzero;stroke:none"
         id="path3066"
         inkscape:connector-curvature="0" /><path
         d="m 497.19118,2349.0977 c 34.328,25.74 274.617,-165.2 308.946,-210.25 34.328,-45.06 150.14,-199.53 152.29,-257.46 4.33,-8.58 34.36,-4.29 34.36,-4.29 0,0 4.89,539.93 272.47002,555.67 72.95,4.29 141.11,-349.09 10.74,-521.34 -60.08,-79.38 -30.05,-229.56 -0.01,-251.02 60.07,17.17 454.83,130.88 682.25,-51.49 227.42,-182.36 362.59,-274.56 291.79,-615.68004 34.32,17.11004 81.52,45.00004 105.12,-4.35 18.99,-39.71 -139.46,-302.51 -248.87,-332.54 -30.76,-8.44 -37.11,-92.02 -72.95,-111.56 -47.2,-25.75 -208.11,-40.77 -248.87,-49.35 -40.76,-8.58 -360.09,-98.521 -394.76,-27.89 -57.93,118 180.22,186.65 180.22,186.65 0,0 -169.49,-40.76 -199.53,0 -19.31,-30.03 -40.76,-62.21 -57.93,-148.03 -17.16,-85.82 -184.3,-91.61 -216.69,-81.53 -96.54002,30.04 8.59,152.33 8.59,152.33 0,0 -83.68,-10.73 -83.68,23.6 0,34.32 53.64,83.67 53.64,83.67 0,0 12.69,136.87 -45.05,160.91 -371.16602,154.47 -276.76702,437.67004 -276.76702,437.67004 0,0 -120.129,137.3 -17.149,289.63 -12.886,105.13 23.586,175.93 23.586,175.93 -57.925,158.76 -141.953,205.04 -180.218,268.18 -42.907,70.8 -81.528,332.54 -81.528,332.54"
         style="fill:#ffffff;fill-opacity:1;fill-rule:nonzero;stroke:none"
         id="path3068"
         inkscape:connector-curvature="0" /><path
         d="m 1090.5672,1549.6977 c 27.81,0 50.35,22.54 50.35,50.35 0,27.81 -22.54,50.36 -50.35,50.36 -27.81,0 -50.36,-22.55 -50.36,-50.36 0,-27.81 22.55,-50.35 50.36,-50.35"
         style="fill:#7b7979;fill-opacity:1;fill-rule:nonzero;stroke:none"
         id="path3076"
         inkscape:connector-curvature="0" /></g></g></svg>